<svg class="icon" viewBox="0 0 1024 1024" xmlns="http://www.w3.org/2000/svg" width="200" height="200"><defs><style/></defs><path d="M416 128v85.333h64V128h64v85.333h64V128h64v85.333h74.667a64 64 0 0 1 64 64V352H896v64h-85.333v64H896v64h-85.333v64H896v64h-85.333v5.483a64 64 0 0 1-18.752 45.269l-69.142 69.141a64 64 0 0 1-45.269 18.752H672v85.334h-64v-85.334h-64v85.334h-64v-85.334h-64v85.334h-64v-85.334h-74.667a64 64 0 0 1-64-64V671.98H128v-64h85.333v-64H128v-64h85.333v-64H128v-64h85.333v-5.483a64 64 0 0 1 18.752-45.27l69.163-69.162a64 64 0 0 1 45.27-18.73H352V128h64zm330.667 149.333h-400.15l-69.184 69.184v400.15h400.15l69.184-69.184v-400.15zm-64 64v341.334H341.333V341.333h341.334zm-64 64H405.333v213.334h213.334V405.333z"/></svg>