<svg class="icon" viewBox="0 0 1024 1024" xmlns="http://www.w3.org/2000/svg" width="200" height="200"><defs><style/></defs><path d="M742.4 844.8c-32 0-64-12.8-89.6-38.4l-160-160c-89.6 25.6-179.2 0-249.6-64-76.8-76.8-96-185.6-51.2-288 6.4-12.8 12.8-19.2 25.6-19.2s19.2 0 25.6 6.4l115.2 115.2 70.4-70.4-115.2-108.8c-6.4-6.4-12.8-19.2-12.8-25.6 0-12.8 6.4-19.2 19.2-25.6 96-44.8 211.2-25.6 288 51.2 64 64 89.6 160 64 249.6l160 160c25.6 25.6 38.4 57.6 38.4 89.6 0 32-12.8 64-38.4 89.6-25.6 25.6-57.6 38.4-89.6 38.4zM499.2 582.4c6.4 0 19.2 6.4 25.6 6.4l172.8 172.8c12.8 12.8 25.6 19.2 44.8 19.2 19.2 0 32-6.4 44.8-19.2 12.8-12.8 19.2-25.6 19.2-44.8 0-19.2-6.4-32-19.2-44.8L614.4 499.2c-12.8-6.4-12.8-25.6-6.4-32 25.6-70.4 6.4-147.2-44.8-204.8-44.8-44.8-108.8-64-166.4-51.2l83.2 83.2c19.2 19.2 19.2 51.2 0 70.4l-89.6 89.6c-19.2 19.2-51.2 19.2-70.4 0l-83.2-83.2c-12.8 57.6 6.4 121.6 51.2 166.4 51.2 51.2 128 70.4 198.4 44.8h12.8z"/></svg>