<svg class="icon" viewBox="0 0 1024 1024" xmlns="http://www.w3.org/2000/svg" width="200" height="200"><defs><style/></defs><path d="M741.717 596.01a64 64 0 0 1 55.424 32l37.718 65.323a64 64 0 0 1 0 64l-37.718 65.323a64 64 0 0 1-55.424 32h-75.434a64 64 0 0 1-55.424-32l-37.718-65.323a64 64 0 0 1 0-64l37.718-65.322a64 64 0 0 1 55.424-32h75.434zM298.667 192h42.666v63.979l-42.666.021v533.333H512v64H298.667a64 64 0 0 1-64-64V256a64 64 0 0 1 64-64zm443.05 468.01h-75.434l-37.718 65.323 37.718 65.323h75.434l37.718-65.323-37.718-65.322zM704 682.668A42.667 42.667 0 1 1 704 768a42.667 42.667 0 0 1 0-85.333zM554.667 533.333v64h-192v-64h192zM725.333 192a64 64 0 0 1 64 64l-.021 298.667h-64L725.333 256h-42.666v-64h42.666zm-64 213.333v64H362.667v-64h298.666zM576 128a64 64 0 0 1 64 64v42.667a64 64 0 0 1-64 64H448a64 64 0 0 1-64-64V192a64 64 0 0 1 64-64h128zm0 64H448v42.667h128V192z"/></svg>