<svg class="icon" viewBox="0 0 1024 1024" xmlns="http://www.w3.org/2000/svg" width="200" height="200"><defs><style/></defs><path d="M822.741 618.667a42.667 42.667 0 0 1 33.046 69.674l-67.2 82.198V908.8l-63.275-16.981V746.773l52.437-64.106H627.627l55.04 63.786v133.91L618.9 863.232V770.56l-70.165-81.323a42.667 42.667 0 0 1 32.299-70.57H822.74zM218.56 769.024l146.603-171.05a274.747 274.747 0 0 0 60.138 28.202l-158.144 184.49h287.51v64h-287.51a64 64 0 0 1-48.597-105.642l146.603-171.05zM512 149.334c117.824 0 213.333 95.509 213.333 213.333S629.824 576 512 576s-213.333-95.51-213.333-213.333S394.176 149.333 512 149.333zm0 64A149.333 149.333 0 1 0 512 512a149.333 149.333 0 0 0 0-298.667z"/></svg>